# AST/ASF file generated using VICON BodyLanguage
# -----------------------------------------------
:version 1.10
:name VICON
:units
  mass 1.0
  length 0.45
  angle deg
:documentation
   .ast/.asf automatically generated from VICON data using
   VICON BodyBuilder and BodyLanguage model FoxedUp or BRILLIANT.MOD
:root
   order TX TY TZ RX RY RZ
   axis XYZ
   position 0 0 0  
   orientation 0 0 0 
:bonedata
  begin
     id 1 
     name lhipjoint
     direction 0.570549 -0.739093 0.358072 
     length 2.41801 
     axis 0 0 0  XYZ
  end
  begin
     id 2 
     name lfemur
     direction 0.34202 -0.939693 0  
     length 7.44434  
     axis 0 0 20  XYZ
    dof rx ry rz
    limits (-160.0 20.0)
           (-70.0 70.0)
           (-60.0 70.0)
  end
  begin
     id 3 
     name ltibia
     direction 0.34202 -0.939693 0   
     length 7.60047   
     axis 0 0 20   XYZ
    dof rx
    limits (-10.0 170.0)
  end
  begin
     id 4 
     name lfoot
     direction 0.0909041 -0.249757 0.964032   
     length 2.03437   
     axis -90 7.62852e-016 20   XYZ
    dof rx rz
    limits (-45.0 90.0)
           (-70.0 20.0)
  end
  begin
     id 5 
     name ltoes
     direction 1.53547e-011 -4.2174e-011 1   
     length 1.02054   
     axis -90 7.62852e-016 20   XYZ
    dof rx
    limits (-90.0 20.0)
  end
  begin
     id 6 
     name rhipjoint
     direction -0.558096 -0.746754 0.361784   
     length 2.3932  
     axis 0 0 0  XYZ 
  end
  begin
     id 7 
     name rfemur
     direction -0.34202 -0.939693 0   
     length 7.3886   
     axis 0 0 -20   XYZ
    dof rx ry rz
    limits (-160.0 20.0)
           (-70.0 70.0)
           (-70.0 60.0)
  end
  begin
     id 8 
     name rtibia
     direction -0.34202 -0.939693 0   
     length 7.4839   
     axis 0 0 -20   XYZ
    dof rx
    limits (-10.0 170.0)
 end
 begin
     id 9 
     name rfoot
     direction -0.114619 -0.314914 0.942174   
     length 2.25127  
     axis -90 -7.62852e-016 -20   XYZ
    dof rx rz
    limits (-45.0 90.0)
           (-20.0 70.0)
  end
  begin
     id 10 
     name rtoes
     direction -1.53518e-011 -4.21881e-011 1   
     length 1.11821   
     axis -90 -7.62852e-016 -20   XYZ
    dof rx
    limits (-90.0 20.0)
  end
  begin
     id 11 
     name lowerback
     direction -0.00902269 0.996426 -0.0839821   
     length 2.25052   
     axis 0 0 0   XYZ
    dof rx ry rz
    limits (-20.0 45.0)
           (-30.0 30.0)
           (-30.0 30.0)
  end
  begin
     id 12 
     name upperback
     direction 0.0370973 0.999169 -0.0168941   
     length 2.24876   
     axis 0 0 0   XYZ
    dof rx ry rz
    limits (-20.0 45.0)
           (-30.0 30.0)
           (-30.0 30.0)
  end
  begin
     id 13 
     name thorax
     direction 0.0402726 0.998931 0.0227027   
     length 2.26408   
     axis 0 0 0   XYZ
    dof rx ry rz
    limits (-20.0 45.0)
           (-30.0 30.0)
           (-30.0 30.0)
  end
  begin
     id 14 
     name lowerneck
     direction -0.0733697 0.98508 0.155675   
     length 1.58204   
     axis 0 0 0   XYZ
    dof rx ry rz
    limits (-20.0 45.0)
           (-30.0 30.0)
           (-30.0 30.0)
  end
  begin
     id 15 
     name upperneck
     direction 0.0426554 0.993501 -0.105526   
     length 1.61222   
     axis 0 0 0   XYZ
    dof rx ry rz
    limits (-20.0 45.0)
           (-30.0 30.0)
           (-30.0 30.0)
  end
  begin
     id 16
     name head
     direction 0.020792 0.998384 -0.0528868  
     length 1.61527  
     axis 0 0 0   XYZ
    dof rx ry rz
    limits (-20.0 45.0)
           (-30.0 30.0)
           (-30.0 30.0)
  end
  begin
     id 17 
     name lclavicle
     direction 0.967109 0.155462 -0.201325  
     length 3.59357  
     axis 0 0 0   XYZ
    dof ry rz
    limits (-20.0 10.0)
           (0.0 20.0)
  end
  begin
     id 18 
     name lhumerus
     direction 1 -4.48968e-011 2.38195e-027   
     length 5.38154   
     axis 180 -30 -90   XYZ
    dof rx ry rz
    limits (-60.0 90.0)
           (-90.0 90.0)
           (-90.0 90.0)
  end
  begin
     id 19
     name lradius
     direction 1 -4.48961e-011 4.85371e-027   
     length 3.33312   
     axis 180 -30 -90   XYZ
    dof rx
    limits (-10.0 170.0)
  end
  begin
     id 20
     name lwrist
     direction 1 -4.48961e-011 4.76515e-027   
     length 1.66656   
     axis -3.27502e-015 90 90   XYZ
    dof ry
    limits (-180.0 0.0)
 end
  begin
     id 21 
     name lhand
     direction 1 -4.48951e-011 9.53074e-027   
     length 0.710789   
     axis -6.08098e-015 90 90   XYZ
    dof rx rz
    limits (-90.0 90.0)
           (-45.0 45.0)
  end
  begin
     id 22 
     name lfingers
     direction 1 -4.48953e-011 1.90613e-026   
     length 0.573057   
     axis -1.21619e-014 90 90   XYZ
    dof rx
    limits (0.0 90.0)
  end
  begin
     id 23
     name lthumb
     direction 0.707107 -6.34973e-011 0.707107   
     length 0.822798   
     axis -90 45 -9.86923e-015   XYZ
    dof rx rz
    limits (-45.0 45.0)
           (-45.0 45.0)
  end
  begin
     id 24 
     name rclavicle
     direction -0.9585 0.265289 -0.104398   
     length 3.42039  
     axis 0 0 0   XYZ 
    dof ry rz
    limits (-10.0 20.0)
           (-20.0 0.0)
  end
  begin
     id 25 
     name rhumerus
     direction -1 -4.48977e-011 2.21478e-027  
     length 5.16954   
     axis 180 30 90   XYZ
    dof rx ry rz
    limits (-90.0 60.0)
           (-90.0 90.0)
           (-90.0 90.0)
  end
  begin
     id 26 
     name rradius
     direction -1 -4.48967e-011 5.63677e-027   
     length 3.38287   
     axis 180 30 90   XYZ
    dof rx
    limits (-10.0 170.0)
  end
  begin
     id 27 
     name rwrist
     direction -1 -4.48967e-011 4.76501e-027   
     length 1.69144   
     axis -3.27502e-015 -90 -90   XYZ
    dof ry
    limits (-180.0 0.0)
  end
  begin
     id 28
     name rhand
     direction -1 -4.48902e-011 9.53292e-027   
     length 0.817967   
     axis -6.08098e-015 -90 -90   XYZ
    dof rx rz
    limits (-90.0 90.0)
           (-45.0 45.0)
  end
  begin
     id 29
     name rfingers
     direction -1 -4.49012e-011 1.90561e-026   
     length 0.659466   
     axis -1.21619e-014 -90 -90   XYZ
    dof rx
    limits (0.0 90.0)
  end
  begin
     id 30
     name rthumb
     direction -0.707107 -6.34944e-011 0.707107   
     length 0.946865   
     axis -90 -45 9.86923e-015   XYZ
    dof rx rz
    limits (-45.0 45.0)
           (-45.0 45.0)
  end
:hierarchy
  begin
    root lhipjoint rhipjoint lowerback
    lhipjoint lfemur
    lfemur ltibia
    ltibia lfoot
    lfoot ltoes
    rhipjoint rfemur
    rfemur rtibia
    rtibia rfoot
    rfoot rtoes
    lowerback upperback
    upperback thorax
    thorax lowerneck lclavicle rclavicle
    lowerneck upperneck
    upperneck head
    lclavicle lhumerus
    lhumerus lradius
    lradius lwrist
    lwrist lhand lthumb
    lhand lfingers
    rclavicle rhumerus
    rhumerus rradius
    rradius rwrist
    rwrist rhand rthumb
    rhand rfingers
  end

#!OML:ASF F:\twosubjects\two\wednesday\Session 1\Justin1.ASF
:FULLY-SPECIFIED
:DEGREES
1011
root 8.72507 17.289 4.16163 -337.258 104.101 -701.636
lowerback 7.73741 3.18846 -0.0131318
upperback 2.28861 4.33321 1.07474
thorax -2.04703 2.18808 0.705621
lowerneck -14.0331 -7.36256 -11.5828
upperneck 17.1987 -8.89692 7.47548
head 8.53676 -4.21929 3.34355
rclavicle -4.66647e-014 -2.48481e-015
rhumerus 39.5195 6.3981 -54.141
rradius 34.9034
rwrist 3.87697
rhand -22.9494 36.4576
rfingers 7.12502
rthumb 3.49194 6.50644
lclavicle -4.66647e-014 -2.48481e-015
lhumerus 30.1178 -10.0734 47.9331
lradius 45.3164
lwrist -19.0754
lhand -8.23231 30.7502
lfingers 7.12502
lthumb 17.6853 59.9659
rfemur -6.66488 -1.35818 6.18072
rtibia 26.0116
rfoot -11.9617 -15.3902
rtoes 5.5644
lfemur -24.7956 4.91968 -2.521
ltibia 37.2823
lfoot -13.4585 -3.59102
ltoes -35.3079
1012
root 8.72769 17.2896 4.08981 -337.689 104.191 -701.926
lowerback 8.09729 3.07984 -0.2731
upperback 2.40047 4.17401 1.07595
thorax -2.14671 2.11107 0.849305
lowerneck -13.949 -7.55151 -11.7113
upperneck 16.9172 -9.16403 7.63271
head 8.46857 -4.3428 3.38193
rclavicle 2.26118e-014 -1.74931e-014
rhumerus 39.3742 6.08963 -53.9894
rradius 34.9399
rwrist 3.62339
rhand -22.892 36.5798
rfingers 7.12502
rthumb 3.54735 6.6296
lclavicle 2.26118e-014 -1.74931e-014
lhumerus 30.1536 -10.1132 47.6855
lradius 45.6467
lwrist -18.8495
lhand -8.42254 31.3948
lfingers 7.12502
lthumb 17.5022 60.6269
rfemur -7.18952 -1.34286 6.02943
rtibia 27.0878
rfoot -12.2185 -14.0815
rtoes 4.35089
lfemur -24.4955 5.66254 -3.10183
ltibia 37.9835
lfoot -14.5486 -2.87895
ltoes -41.2421
1013
root 8.73926 17.2918 4.02393 -336.47 104.284 -700.469
lowerback 8.32565 2.91548 -0.396682
upperback 2.63143 3.9645 1.39371
thorax -2.06114 2.01108 1.26068
lowerneck -13.8418 -7.69745 -12.0644
upperneck 16.4652 -9.30923 7.7482
head 8.33691 -4.42899 3.45857
rclavicle 2.69353e-014 -2.04748e-014
rhumerus 39.492 6.10679 -53.6038
rradius 35.0729
rwrist 3.24378
rhand -23.0036 36.5714
rfingers 7.12502
rthumb 3.43966 6.61941
lclavicle 2.69353e-014 -2.04748e-014
lhumerus 29.7855 -9.3568 48.1045
lradius 45.7832
lwrist -19.0556
lhand -8.92353 30.9675
lfingers 7.12502
lthumb 17.0201 60.2419
rfemur -7.60584 -1.3269 6.425
rtibia 27.8294
rfoot -12.4082 -12.6103
rtoes 2.01625
lfemur -24.8932 5.1848 -2.71108
ltibia 38.3065
lfoot -13.6077 -3.30941
ltoes -35.5296
1014
root 8.74722 17.2627 3.95962 -334.236 104.616 -697.936
lowerback 8.55102 2.64869 0.0771983
upperback 2.86929 3.66922 1.66165
thorax -1.92028 1.86919 1.29831
lowerneck -13.7068 -7.87485 -12.3753
upperneck 16.0592 -9.54029 8.00482
head 8.2312 -4.53954 3.56565
rclavicle -1.54058e-015 4.57205e-015
rhumerus 39.4188 6.1969 -53.0122
rradius 35.5021
rwrist 2.63338
rhand -23.0898 35.9727
rfingers 7.12502
rthumb 3.35635 6.01937
lclavicle -1.54058e-015 4.57205e-015
lhumerus 29.5281 -8.59394 48.3661
lradius 45.8271
lwrist -19.1772
lhand -9.12057 30.5866
lfingers 7.12502
lthumb 16.8304 59.8773
rfemur -7.8559 -1.51102 7.19861
rtibia 28.2056
rfoot -12.5258 -10.8119
rtoes 0.947553
lfemur -24.6449 5.49859 -2.15288
ltibia 38.7865
lfoot -14.0765 -3.35732
ltoes -33.9435
1015
root 8.7693 17.2848 3.88346 -332.522 104.988 -695.71
lowerback 8.96966 2.55594 0.81811
upperback 3.01306 3.62413 1.682
thorax -1.95759 1.85207 0.894431
lowerneck -13.4942 -8.25274 -12.0511
upperneck 16.0841 -10.1661 8.04601
head 8.25406 -4.81617 3.44857
rclavicle -4.1049e-014 -2.28602e-014
rhumerus 38.6698 5.77022 -52.7132
rradius 35.7923
rwrist 2.15165
rhand -22.7688 35.5506
rfingers 7.12502
rthumb 3.66635 5.60235
lclavicle -4.1049e-014 -2.28602e-014
lhumerus 29.8449 -8.94974 48.2523
lradius 45.7519
lwrist -18.8309
lhand -9.17089 30.4112
lfingers 7.12502
lthumb 16.7819 59.7059
rfemur -7.60306 -1.97023 7.95318
rtibia 28.1347
rfoot -12.6173 -8.9834
rtoes 0.0742853
lfemur -24.2782 5.99116 -1.87083
ltibia 39.1854
lfoot -14.6624 -2.98978
ltoes -34.0077
1016
root 8.80175 17.3088 3.80894 -331.783 104.881 -694.532
lowerback 9.13911 2.62971 0.920509
upperback 3.22237 3.73936 1.66199
thorax -1.82792 1.91446 0.802637
lowerneck -13.1725 -8.60022 -12.0921
upperneck 16.0169 -10.7296 8.34795
head 8.25529 -5.06512 3.48884
rclavicle 2.58917e-014 2.38542e-015
rhumerus 38.1071 5.24752 -52.6437
rradius 35.6857
rwrist 1.9652
rhand -22.6319 35.4059
rfingers 7.12502
rthumb 3.79861 5.46002
lclavicle 2.58917e-014 2.38542e-015
lhumerus 30.2529 -9.34448 48.3348
lradius 45.6008
lwrist -18.5478
lhand -9.23599 30.1799
lfingers 7.12502
lthumb 16.7193 59.4799
rfemur -7.52713 -2.58786 8.26088
rtibia 28.0914
rfoot -12.4629 -7.43512
rtoes -1.07165
lfemur -23.868 6.70214 -2.08658
ltibia 39.7848
lfoot -15.5615 -2.29737
ltoes -35.9398
1017
root 8.83022 17.3341 3.74868 -331.761 104.591 -694.502
lowerback 8.88287 2.6401 0.390559
upperback 3.39402 3.70632 1.723
thorax -1.54622 1.89834 1.18265
lowerneck -12.9368 -8.80816 -13.0191
upperneck 16.0003 -11.0207 9.21607
head 8.34906 -5.18601 3.8938
rclavicle 7.37988e-014 1.78906e-015
rhumerus 37.8114 5.09607 -52.4066
rradius 35.6687
rwrist 1.83665
rhand -22.8241 35.0406
rfingers 7.12502
rthumb 3.61297 5.09149
lclavicle 7.37988e-014 1.78906e-015
lhumerus 30.2372 -9.1904 48.8059
lradius 45.6254
lwrist -18.652
lhand -8.89626 30.2709
lfingers 7.12502
lthumb 17.0463 59.543
rfemur -7.88361 -3.32009 8.34754
rtibia 27.9211
rfoot -12.0518 -6.62394
rtoes -1.78745
lfemur -23.8 7.59093 -2.6685
ltibia 40.2238
lfoot -17.0173 -1.59861
ltoes -41.2232
1018
root 8.85456 17.3463 3.69287 -332.127 104.338 -694.931
lowerback 8.72875 2.64804 -0.173885
upperback 3.41418 3.66682 1.74151
thorax -1.47554 1.87489 1.52887
lowerneck -12.6334 -8.98466 -13.6452
upperneck 16.0455 -11.3038 9.87122
head 8.42447 -5.30594 4.18466
rclavicle 3.12589e-014 -1.07344e-014
rhumerus 37.2102 4.88041 -52.4412
rradius 35.7364
rwrist 2.01552
rhand -22.4665 35.0424
rfingers 7.12502
rthumb 3.95826 5.09945
lclavicle 3.12589e-014 -1.07344e-014
lhumerus 30.058 -9.26356 49.3309
lradius 45.6738
lwrist -18.8046
lhand -8.69095 30.4787
lfingers 7.12502
lthumb 17.2439 59.7336
rfemur -8.35433 -4.24425 8.37042
rtibia 27.8161
rfoot -11.5433 -6.52588
rtoes -2.31751
lfemur -23.6702 7.93139 -3.20356
ltibia 40.3319
lfoot -15.9316 -1.51338
ltoes -38.8957
1019
root 8.87599 17.3551 3.6384 -332.502 104.254 -695.389
lowerback 8.5948 2.6176 -0.354565
upperback 3.36032 3.60111 1.53994
thorax -1.45346 1.83948 1.43387
lowerneck -12.0411 -9.13157 -13.2843
upperneck 15.725 -11.6497 9.96045
head 8.23792 -5.45905 4.12917
rclavicle 3.67752e-015 1.19271e-015
rhumerus 36.4374 4.45329 -52.8113
rradius 35.6608
rwrist 2.2904
rhand -22.4319 34.8004
rfingers 7.12502
rthumb 3.99174 4.85803
lclavicle 3.67752e-015 1.19271e-015
lhumerus 30.1233 -9.76825 49.3694
lradius 45.5926
lwrist -18.7082
lhand -8.83738 30.4579
lfingers 7.12502
lthumb 17.103 59.7252
rfemur -8.85221 -5.3162 8.46948
rtibia 27.8124
rfoot -11.359 -6.87912
rtoes -2.41572
lfemur -23.5395 7.51817 -3.48832
ltibia 40.1488
lfoot -15.021 -1.44936
ltoes -36.2187
